REM DIRINDEX 1\2,1\3
REM DIRNAME cjc143,folder01,folder02
TITLE ""
FILE "2000 phrasesTrack11.mp3" MP3
  TRACK 01 AUDIO
    TITLE "2:cjc143_0476"
    INDEX 01 00:00:00
  TRACK 02 AUDIO
    TITLE "0:"
    INDEX 01 00:00:62
  TRACK 03 AUDIO
    TITLE "2:cjc143_0477"
    INDEX 01 00:01:28
  TRACK 04 AUDIO
    TITLE "0:"
    INDEX 01 00:02:30
  TRACK 05 AUDIO
    TITLE "2:cjc143_0478"
    INDEX 01 00:02:71
  TRACK 06 AUDIO
    TITLE "0:"
    INDEX 01 00:04:07
  TRACK 07 AUDIO
    TITLE "2:cjc143_0479"
    INDEX 01 00:04:52
  TRACK 08 AUDIO
    TITLE "0:"
    INDEX 01 00:06:06
  TRACK 09 AUDIO
    TITLE "2:cjc143_0480"
    INDEX 01 00:06:49
  TRACK 10 AUDIO
    TITLE "0:"
    INDEX 01 00:07:62
  TRACK 11 AUDIO
    TITLE "2:cjc143_0481"
    INDEX 01 00:08:30
  TRACK 12 AUDIO
    TITLE "0:"
    INDEX 01 00:09:47
  TRACK 13 AUDIO
    TITLE "2:cjc143_0482"
    INDEX 01 00:10:14
  TRACK 14 AUDIO
    TITLE "0:"
    INDEX 01 00:11:33
  TRACK 15 AUDIO
    TITLE "2:cjc143_0483"
    INDEX 01 00:12:01
  TRACK 16 AUDIO
    TITLE "0:"
    INDEX 01 00:13:22
  TRACK 17 AUDIO
    TITLE "2:cjc143_0484"
    INDEX 01 00:13:65
  TRACK 18 AUDIO
    TITLE "0:"
    INDEX 01 00:15:11
  TRACK 19 AUDIO
    TITLE "2:cjc143_0485"
    INDEX 01 00:15:54
  TRACK 20 AUDIO
    TITLE "0:"
    INDEX 01 00:16:65
  TRACK 21 AUDIO
    TITLE "2:cjc143_0486"
    INDEX 01 00:17:35
  TRACK 22 AUDIO
    TITLE "0:"
    INDEX 01 00:18:52
  TRACK 23 AUDIO
    TITLE "2:cjc143_0487"
    INDEX 01 00:19:20
  TRACK 24 AUDIO
    TITLE "0:"
    INDEX 01 00:20:41
  TRACK 25 AUDIO
    TITLE "2:cjc143_0488"
    INDEX 01 00:21:17
  TRACK 26 AUDIO
    TITLE "0:"
    INDEX 01 00:22:34
  TRACK 27 AUDIO
    TITLE "2:cjc143_0489"
    INDEX 01 00:23:08
  TRACK 28 AUDIO
    TITLE "0:"
    INDEX 01 00:24:25
  TRACK 29 AUDIO
    TITLE "2:cjc143_0490"
    INDEX 01 00:24:67
  TRACK 30 AUDIO
    TITLE "0:"
    INDEX 01 00:26:09
  TRACK 31 AUDIO
    TITLE "2:cjc143_0491"
    INDEX 01 00:26:54
  TRACK 32 AUDIO
    TITLE "0:"
    INDEX 01 00:28:13
  TRACK 33 AUDIO
    TITLE "2:cjc143_0492"
    INDEX 01 00:28:64
  TRACK 34 AUDIO
    TITLE "0:"
    INDEX 01 00:30:20
  TRACK 35 AUDIO
    TITLE "2:cjc143_0493"
    INDEX 01 00:30:63
  TRACK 36 AUDIO
    TITLE "0:"
    INDEX 01 00:32:27
  TRACK 37 AUDIO
    TITLE "2:cjc143_0494"
    INDEX 01 00:33:01
  TRACK 38 AUDIO
    TITLE "0:"
    INDEX 01 00:34:43
  TRACK 39 AUDIO
    TITLE "2:cjc143_0495"
    INDEX 01 00:35:14
  TRACK 40 AUDIO
    TITLE "0:"
    INDEX 01 00:36:52
  TRACK 41 AUDIO
    TITLE "2:cjc143_0496"
    INDEX 01 00:37:22
  TRACK 42 AUDIO
    TITLE "0:"
    INDEX 01 00:38:33
  TRACK 43 AUDIO
    TITLE "2:cjc143_0497"
    INDEX 01 00:39:02
  TRACK 44 AUDIO
    TITLE "0:"
    INDEX 01 00:40:15
  TRACK 45 AUDIO
    TITLE "2:cjc143_0498"
    INDEX 01 00:40:58
  TRACK 46 AUDIO
    TITLE "0:"
    INDEX 01 00:42:02
  TRACK 47 AUDIO
    TITLE "2:cjc143_0499"
    INDEX 01 00:42:45
  TRACK 48 AUDIO
    TITLE "0:"
    INDEX 01 00:43:56
  TRACK 49 AUDIO
    TITLE "2:cjc143_0500"
    INDEX 01 00:44:28
  TRACK 50 AUDIO
    TITLE "0:"
    INDEX 01 00:45:71
  TRACK 51 AUDIO
    TITLE "2:cjc143_0501"
    INDEX 01 00:46:41
  TRACK 52 AUDIO
    TITLE "0:"
    INDEX 01 00:48:04
  TRACK 53 AUDIO
    TITLE "2:cjc143_0502"
    INDEX 01 00:48:48
  TRACK 54 AUDIO
    TITLE "0:"
    INDEX 01 00:49:59
  TRACK 55 AUDIO
    TITLE "2:cjc143_0503"
    INDEX 01 00:50:27
  TRACK 56 AUDIO
    TITLE "0:"
    INDEX 01 00:51:44
  TRACK 57 AUDIO
    TITLE "2:cjc143_0504"
    INDEX 01 00:52:12
  TRACK 58 AUDIO
    TITLE "0:"
    INDEX 01 00:53:31
  TRACK 59 AUDIO
    TITLE "2:cjc143_0505"
    INDEX 01 00:53:74
  TRACK 60 AUDIO
    TITLE "0:"
    INDEX 01 00:55:14
  TRACK 61 AUDIO
    TITLE "2:cjc143_0506"
    INDEX 01 00:55:57
  TRACK 62 AUDIO
    TITLE "0:"
    INDEX 01 00:57:17
  TRACK 63 AUDIO
    TITLE "2:cjc143_0507"
    INDEX 01 00:57:62
  TRACK 64 AUDIO
    TITLE "0:"
    INDEX 01 00:59:10
  TRACK 65 AUDIO
    TITLE "2:cjc143_0508"
    INDEX 01 00:59:57
  TRACK 66 AUDIO
    TITLE "0:"
    INDEX 01 01:00:59
  TRACK 67 AUDIO
    TITLE "2:cjc143_0509"
    INDEX 01 01:01:27
  TRACK 68 AUDIO
    TITLE "0:"
    INDEX 01 01:02:28
  TRACK 69 AUDIO
    TITLE "2:cjc143_0510"
    INDEX 01 01:02:71
  TRACK 70 AUDIO
    TITLE "0:"
    INDEX 01 01:04:11
  TRACK 71 AUDIO
    TITLE "2:cjc143_0511"
    INDEX 01 01:04:56
  TRACK 72 AUDIO
    TITLE "0:"
    INDEX 01 01:05:73
  TRACK 73 AUDIO
    TITLE "2:cjc143_0512"
    INDEX 01 01:06:43
  TRACK 74 AUDIO
    TITLE "0:"
    INDEX 01 01:07:70
  TRACK 75 AUDIO
    TITLE "2:cjc143_0513"
    INDEX 01 01:08:44
  TRACK 76 AUDIO
    TITLE "0:"
    INDEX 01 01:09:63
  TRACK 77 AUDIO
    TITLE "2:cjc143_0514"
    INDEX 01 01:10:31
  TRACK 78 AUDIO
    TITLE "0:"
    INDEX 01 01:12:11
  TRACK 79 AUDIO
    TITLE "2:cjc143_0515"
    INDEX 01 01:12:54
  TRACK 80 AUDIO
    TITLE "0:"
    INDEX 01 01:13:55
  TRACK 81 AUDIO
    TITLE "2:cjc143_0516"
    INDEX 01 01:14:23
  TRACK 82 AUDIO
    TITLE "0:"
    INDEX 01 01:15:33
  TRACK 83 AUDIO
    TITLE "2:cjc143_0517"
    INDEX 01 01:16:03
  TRACK 84 AUDIO
    TITLE "0:"
    INDEX 01 01:17:26
  TRACK 85 AUDIO
    TITLE "2:cjc143_0518"
    INDEX 01 01:17:69
  TRACK 86 AUDIO
    TITLE "0:"
    INDEX 01 01:19:21
  TRACK 87 AUDIO
    TITLE "2:cjc143_0519"
    INDEX 01 01:19:66
  TRACK 88 AUDIO
    TITLE "0:"
    INDEX 01 01:20:73
